<?xml version="1.0" standalone="no"?>
<!DOCTYPE svg PUBLIC "-//W3C//DTD SVG 20010904//EN"
 "http://www.w3.org/TR/2001/REC-SVG-20010904/DTD/svg10.dtd">
<svg version="1.0" xmlns="http://www.w3.org/2000/svg"
 width="512.000000pt" height="512.000000pt" viewBox="0 0 512.000000 512.000000"
 preserveAspectRatio="xMidYMid meet">

<g transform="translate(0.000000,512.000000) scale(0.100000,-0.100000)"
fill="#ffffff" stroke="none">
<path d="M176 5098 c-36 -33 -90 -138 -126 -245 -93 -281 -13 -501 225 -619
41 -20 75 -39 75 -41 0 -2 -18 -40 -41 -84 -161 -321 -154 -615 18 -788 54
-53 176 -126 240 -143 21 -6 21 -8 -29 -119 -113 -255 -152 -418 -153 -644 0
-138 3 -171 23 -239 32 -111 93 -223 162 -299 l59 -64 -29 -21 c-39 -29 -78
-98 -89 -158 -20 -104 30 -211 121 -263 71 -41 125 -48 200 -27 34 9 62 15 63
14 2 -2 9 -106 18 -232 14 -217 16 -231 37 -248 28 -22 68 -23 99 -1 24 16 24
16 18 167 -4 83 -10 187 -13 231 l-7 80 76 0 76 0 3 -251 c3 -231 5 -254 22
-273 22 -25 73 -28 102 -7 18 14 19 35 24 568 l5 553 548 3 547 2 0 -755 0
-755 -170 0 -170 0 0 543 c0 332 -4 556 -10 578 -52 185 -302 208 -381 34 -17
-37 -19 -80 -19 -598 l0 -557 -172 2 -173 3 -3 85 c-3 99 -16 120 -72 120 -25
0 -43 -7 -56 -21 -17 -19 -19 -38 -19 -198 1 -172 1 -177 29 -238 33 -72 94
-134 164 -166 68 -31 188 -30 259 2 62 27 135 102 166 169 22 47 22 53 25 691
2 410 6 649 13 657 18 22 48 23 74 2 l25 -19 0 -634 c0 -618 1 -636 21 -690
25 -67 94 -141 164 -175 41 -20 65 -25 135 -25 79 0 90 3 150 36 43 23 78 52
101 83 73 96 69 25 69 1232 0 1071 0 1084 -20 1104 -30 30 -83 27 -109 -6 -19
-25 -21 -40 -21 -190 l0 -164 -550 0 -550 0 0 448 c0 422 -1 450 -18 465 -27
24 -85 22 -108 -4 -17 -19 -19 -41 -22 -235 l-3 -214 -101 0 -101 0 6 208 c9
320 29 438 89 528 60 88 166 148 287 160 l57 6 59 -59 c214 -213 606 -214 816
-1 l56 57 89 11 c118 15 267 46 382 80 51 15 94 25 96 21 6 -9 65 -215 63
-217 -9 -7 -252 -80 -364 -109 -196 -51 -183 -29 -183 -319 0 -221 1 -235 21
-260 27 -34 77 -36 107 -3 21 22 22 32 22 220 l0 196 43 11 c236 59 593 182
802 277 66 30 126 57 134 60 8 4 3 -12 -13 -38 -95 -156 -168 -346 -211 -554
-13 -66 -20 -80 -53 -108 -60 -51 -121 -118 -164 -181 -82 -119 -150 -299
-164 -431 -5 -51 -3 -64 14 -85 29 -36 66 -31 335 46 11 4 17 0 17 -12 0 -42
53 -236 72 -259 28 -36 79 -35 108 2 24 31 25 30 -14 198 -38 163 -51 353 -37
537 10 139 36 299 63 390 l11 37 68 -35 c267 -134 556 -135 821 -3 l77 38 11
-37 c59 -210 84 -510 59 -730 -41 -380 -190 -711 -448 -995 -90 -99 -86 -122
34 -202 92 -61 171 -141 216 -219 16 -28 29 -54 29 -58 0 -4 -30 7 -67 23
-206 94 -430 94 -636 0 -37 -16 -67 -26 -67 -21 0 4 23 43 51 84 55 82 117
141 219 208 59 39 65 47 68 81 3 34 -3 44 -62 109 -82 90 -162 201 -227 314
-56 99 -79 124 -116 124 -29 0 -73 -42 -73 -70 0 -46 123 -249 233 -385 l57
-70 -32 -25 c-166 -127 -288 -321 -320 -508 -12 -70 -11 -72 12 -97 35 -37 69
-32 147 21 85 59 210 119 288 139 176 46 375 -3 573 -141 71 -50 110 -56 143
-23 19 19 21 29 16 79 -8 77 -54 202 -106 290 -47 78 -148 191 -210 234 l-40
28 61 76 c82 103 157 219 212 328 l46 90 57 18 c118 37 451 231 466 270 23 59
-18 218 -98 383 -60 124 -124 224 -221 345 -61 75 -66 85 -79 160 -67 381
-258 731 -500 918 l-57 44 51 45 c106 97 127 217 57 334 -55 92 -176 144 -277
117 -24 -6 -107 -53 -184 -103 -255 -167 -634 -342 -945 -436 -145 -44 -337
-88 -345 -79 -3 3 3 21 14 39 41 71 73 190 78 294 7 132 -13 222 -73 345 -39
79 -62 110 -133 181 -140 140 -293 203 -491 203 -214 -1 -401 -88 -535 -252
-121 -146 -176 -330 -154 -519 10 -90 51 -215 92 -279 l25 -41 -51 -12 c-93
-23 -190 -77 -251 -137 -100 -100 -146 -232 -162 -461 -5 -61 -10 -90 -15 -78
-4 11 -26 119 -49 240 -108 578 -264 1191 -431 1701 -74 227 -94 264 -143 264
-14 0 -36 -10 -50 -22z m140 -576 c25 -85 43 -156 40 -159 -3 -4 -31 11 -61
31 -86 57 -135 146 -135 246 0 50 24 160 41 192 13 24 28 -17 115 -310z m1761
-7 c184 -66 311 -205 358 -390 30 -118 16 -241 -40 -361 -31 -64 -55 -96 -191
-251 -99 -114 -289 -151 -463 -92 -52 18 -161 91 -161 108 0 4 -27 39 -61 77
-117 132 -161 239 -160 394 0 116 23 200 81 288 90 140 231 231 395 255 58 9
180 -5 242 -28z m1996 -414 c61 -23 88 -89 61 -147 -28 -59 -350 -262 -622
-391 -137 -66 -343 -153 -361 -153 -5 0 -21 37 -35 83 -44 147 -51 128 61 172
265 104 505 227 717 367 120 79 136 85 179 69z m-3560 -321 c70 -295 100 -437
95 -449 -5 -17 -123 46 -168 90 -23 22 -54 66 -68 97 -24 51 -27 68 -26 162 1
85 6 121 28 186 39 121 67 180 76 163 4 -8 33 -120 63 -249z m3550 -152 c72
-50 142 -116 203 -192 63 -79 147 -216 174 -285 12 -30 12 -35 -6 -49 -36 -28
-163 -82 -231 -99 -91 -22 -265 -22 -358 1 -80 19 -233 90 -241 111 -8 19 86
196 146 275 26 36 70 88 97 115 51 54 162 145 176 145 5 0 23 -10 40 -22z
m-3333 -923 c33 -199 85 -571 114 -813 l7 -54 -62 43 c-71 50 -138 122 -179
194 -115 202 -103 517 33 845 38 92 34 102 87 -215z m2585 -325 l0 -151 -40
-10 c-22 -6 -61 -17 -87 -24 -27 -8 -48 -10 -48 -5 0 23 62 177 91 223 29 48
77 117 82 117 1 0 2 -68 2 -150z m1555 -155 c36 -75 70 -167 84 -226 5 -24 -2
-30 -97 -86 -150 -89 -211 -119 -203 -98 36 96 74 320 83 493 l6 134 45 -69
c24 -37 62 -104 82 -148z m-3670 -244 c0 -418 0 -429 -21 -455 -43 -55 -127
-21 -148 60 -13 50 -31 432 -31 653 l0 171 100 0 100 0 0 -429z m-357 -321
c93 -104 -60 -242 -157 -141 -30 32 -38 92 -16 128 38 61 124 68 173 13z m847
-1384 c0 -48 -100 -126 -162 -126 -50 0 -109 31 -139 73 -49 67 -49 67 136 67
132 0 165 -3 165 -14z m749 -13 c-23 -63 -95 -113 -161 -113 -53 0 -115 37
-143 84 -14 24 -25 46 -25 49 0 4 76 7 170 7 l170 0 -11 -27z"/>
<path d="M1599 4111 c-64 -65 -20 -171 71 -171 33 0 48 6 71 29 64 65 20 171
-71 171 -33 0 -48 -6 -71 -29z"/>
<path d="M2069 4111 c-64 -65 -20 -171 71 -171 33 0 48 6 71 29 64 65 20 171
-71 171 -33 0 -48 -6 -71 -29z"/>
<path d="M1790 3917 c-34 -17 -53 -58 -41 -89 22 -58 119 -106 184 -92 126 27
178 147 80 185 -24 9 -52 1 -89 -26 -19 -14 -23 -14 -45 3 -35 28 -61 33 -89
19z"/>
<path d="M3962 3374 c-28 -19 -52 -65 -52 -99 0 -57 61 -115 120 -115 60 0
110 57 110 126 0 28 -8 44 -34 70 -28 28 -41 34 -78 34 -24 0 -54 -7 -66 -16z"/>
</g>
</svg>
