<?xml version="1.0" standalone="no"?>
<!DOCTYPE svg PUBLIC "-//W3C//DTD SVG 20010904//EN"
 "http://www.w3.org/TR/2001/REC-SVG-20010904/DTD/svg10.dtd">
<svg version="1.0" xmlns="http://www.w3.org/2000/svg"
 width="276.000000pt" height="126.000000pt" viewBox="0 0 276.000000 126.000000"
 preserveAspectRatio="xMidYMid meet">

<g transform="translate(0.000000,126.000000) scale(0.100000,-0.100000)"
fill="#ffffff" stroke="none">
<path d="M20 951 l0 -231 65 0 65 0 0 90 c0 79 2 90 18 90 29 0 40 -13 85 -96
l42 -79 78 -3 c50 -2 77 1 77 8 0 24 -71 149 -96 169 -15 12 -25 22 -23 24 2
1 16 8 30 16 56 28 80 122 45 176 -35 53 -58 60 -228 63 l-158 4 0 -231z m248
117 c16 -16 15 -43 -3 -58 -8 -6 -36 -12 -62 -13 l-48 -2 -3 43 -3 42 53 0
c30 0 59 -5 66 -12z"/>
<path d="M1519 1160 c-46 -24 -73 -79 -65 -128 9 -57 49 -89 150 -121 94 -29
119 -48 100 -78 -26 -42 -104 -31 -124 18 -12 27 -16 29 -69 29 -73 0 -85 -11
-65 -59 35 -84 103 -117 223 -109 46 4 81 12 104 27 19 11 37 21 39 21 3 0 8
-14 12 -31 9 -47 101 -133 158 -147 l47 -12 -21 -35 c-26 -45 -35 -149 -18
-209 19 -70 71 -123 137 -142 113 -33 237 -1 288 73 l25 38 0 -58 0 -57 160 0
160 0 0 55 0 55 -90 0 -90 0 -2 173 -3 172 -67 3 -68 3 0 -63 0 -63 -19 31
c-22 35 -66 70 -109 85 l-30 10 49 46 c69 65 109 149 109 230 0 35 -6 78 -14
97 -19 47 -71 102 -125 134 -38 22 -57 26 -116 26 -45 -1 -83 -7 -107 -18 -20
-10 -43 -19 -52 -20 -34 -5 -175 -138 -188 -177 -3 -8 -18 -3 -43 14 -22 14
-76 35 -119 46 -80 21 -98 33 -89 57 13 34 96 20 108 -18 9 -25 122 -27 132
-1 10 26 -28 86 -67 105 -50 26 -192 24 -241 -2z m731 -20 c77 -21 144 -95
159 -175 10 -51 -3 -135 -22 -147 -6 -4 -12 -13 -12 -20 -1 -25 -38 -73 -88
-116 -66 -54 -144 -84 -222 -84 -103 0 -168 43 -213 140 -20 44 -24 64 -19
107 10 100 84 199 188 255 92 49 157 60 229 40z m29 -632 c41 -43 41 -160 0
-204 -31 -33 -91 -33 -123 -1 -42 42 -42 162 0 208 25 28 97 26 123 -3z"/>
<path d="M2143 1020 c-48 -29 -69 -65 -55 -95 15 -32 48 -39 99 -21 45 16 65
7 43 -19 -7 -9 -22 -12 -39 -9 -35 7 -60 -18 -41 -41 35 -43 149 18 150 81 0
11 -11 31 -25 44 -23 22 -28 22 -66 11 -23 -7 -47 -15 -55 -18 -8 -3 -14 1
-14 11 0 11 9 16 28 16 36 0 67 31 50 48 -17 17 -38 15 -75 -8z"/>
<path d="M2000 922 l-23 -19 42 -57 c44 -59 50 -97 12 -77 -14 8 -22 6 -36 -9
-24 -26 -5 -50 39 -50 39 0 86 44 86 80 0 24 -76 150 -90 150 -4 0 -18 -8 -30
-18z"/>
<path d="M120 639 c-25 -5 -56 -17 -70 -27 -23 -17 -25 -27 -28 -100 -3 -78
-2 -81 25 -100 29 -20 93 -44 150 -56 39 -9 56 -28 51 -57 -7 -53 -99 -43
-126 14 -10 21 -20 27 -45 27 -51 0 -59 -11 -55 -70 3 -49 6 -56 36 -73 42
-24 151 -34 210 -18 23 7 57 25 76 41 l34 30 31 -29 c56 -53 202 -67 280 -27
31 16 91 97 91 122 0 7 -27 21 -60 32 l-60 21 -14 -34 c-21 -50 -78 -71 -126
-45 -38 20 -53 130 -26 194 25 61 113 67 150 12 14 -22 18 -23 66 -13 60 12
68 23 46 66 -58 111 -257 131 -357 35 l-26 -25 -34 34 c-24 24 -50 38 -87 46
-59 12 -69 12 -132 0z m116 -114 c14 -21 24 -25 63 -25 47 0 48 0 43 -31 -3
-23 -8 -29 -21 -23 -9 4 -52 18 -96 31 -88 26 -101 34 -92 57 4 11 19 16 46
16 32 0 44 -5 57 -25z"/>
<path d="M1537 639 c-57 -14 -92 -35 -126 -76 l-31 -38 0 58 0 58 -67 -3 -68
-3 -3 -77 -3 -78 -74 0 -74 0 -3 78 -3 77 -70 0 -70 0 0 -225 0 -225 70 0 70
0 3 87 3 88 74 0 75 0 0 -90 0 -90 70 0 70 0 0 50 0 49 43 -43 c46 -46 101
-66 179 -66 136 0 223 78 235 210 14 149 -66 247 -212 263 -27 3 -67 1 -88 -4z
m108 -115 c60 -23 60 -215 0 -238 -9 -3 -31 -6 -48 -6 -62 1 -87 40 -87 135 0
57 3 69 25 90 24 25 73 33 110 19z"/>
</g>
</svg>
