<?xml version="1.0" standalone="no"?>
<!DOCTYPE svg PUBLIC "-//W3C//DTD SVG 20010904//EN"
 "http://www.w3.org/TR/2001/REC-SVG-20010904/DTD/svg10.dtd">
<svg version="1.0" xmlns="http://www.w3.org/2000/svg"
 width="512.000000pt" height="512.000000pt" viewBox="0 0 512.000000 512.000000"
 preserveAspectRatio="xMidYMid meet">

<g transform="translate(0.000000,512.000000) scale(0.100000,-0.100000)"
fill="#ffffff" stroke="none">
<path d="M2463 5106 c-95 -31 -180 -101 -222 -183 -26 -51 -41 -139 -41 -237
l0 -81 -59 -47 c-73 -58 -142 -153 -178 -244 -26 -64 -28 -79 -27 -214 0 -150
8 -206 50 -348 28 -94 120 -304 163 -374 16 -25 27 -49 23 -52 -3 -3 -24 -6
-46 -6 -114 -1 -328 -72 -467 -156 -81 -49 -82 -50 -422 -476 -188 -236 -355
-452 -370 -481 -100 -189 -2 -447 201 -529 55 -22 69 -23 390 -26 l333 -3 -3
-137 -3 -137 -445 -130 c-265 -78 -467 -142 -500 -160 -73 -39 -177 -145 -218
-222 -113 -214 -87 -478 64 -651 l46 -52 -339 0 c-371 0 -375 -1 -388 -59 -7
-33 15 -85 40 -95 28 -10 5014 -7 5034 4 10 5 24 23 31 40 15 35 0 84 -31 100
-10 6 -158 10 -354 10 l-337 0 46 52 c222 254 163 662 -123 852 -61 41 -100
55 -362 132 -162 47 -366 107 -454 133 l-160 47 -3 137 -3 137 313 0 c337 0
379 5 461 53 59 35 124 108 155 175 24 50 27 69 27 162 0 133 -10 155 -142
321 -120 150 -141 162 -197 118 -20 -15 -26 -29 -26 -57 0 -31 14 -54 92 -152
105 -133 118 -159 118 -237 0 -79 -41 -151 -107 -190 l-48 -28 -646 -3 c-607
-2 -647 -1 -668 15 -21 18 -21 19 -19 398 l3 380 31 -32 c62 -64 108 -203 120
-364 6 -74 11 -96 30 -118 l22 -26 354 -3 c194 -2 368 0 386 3 45 8 72 38 72
79 0 28 -29 71 -191 277 -105 134 -200 254 -212 267 -30 32 -89 31 -116 -4
-37 -47 -29 -70 57 -177 l56 -69 -13 -61 c-7 -34 -17 -83 -23 -109 l-10 -48
-123 0 c-140 0 -129 -7 -140 93 -23 205 -124 383 -248 438 -74 33 -200 33
-274 0 -124 -55 -225 -233 -248 -438 -11 -100 0 -93 -140 -93 l-123 0 -10 48
c-6 26 -16 75 -23 109 l-13 61 56 69 c86 107 94 130 57 177 -27 35 -86 36
-116 4 -12 -13 -107 -133 -212 -267 -162 -206 -191 -249 -191 -277 0 -41 27
-71 72 -79 18 -3 192 -5 386 -3 l354 3 22 26 c19 22 24 44 30 118 12 163 57
299 119 363 l32 33 3 -380 c2 -379 2 -380 -19 -398 -21 -16 -61 -17 -668 -15
l-646 3 -48 28 c-91 54 -134 183 -93 281 16 37 642 827 689 868 41 37 152 94
240 124 130 45 232 54 598 54 479 0 602 -16 776 -102 87 -43 118 -68 203 -166
55 -63 86 -68 132 -22 24 25 29 36 23 58 -11 45 -112 167 -169 205 -129 86
-294 148 -441 168 -49 6 -96 13 -103 15 -8 2 -1 21 21 56 69 109 165 356 197
508 21 101 25 287 6 359 -31 122 -108 241 -200 313 l-53 41 -6 117 c-7 145
-29 209 -97 283 -88 96 -243 140 -357 103z m206 -181 c53 -36 79 -89 87 -175
l7 -73 -26 7 c-110 27 -244 27 -354 0 l-26 -7 6 72 c4 51 13 85 31 116 54 92
188 121 275 60z m56 -407 c97 -32 193 -104 249 -188 28 -42 22 -45 -74 -42
-137 5 -197 -17 -409 -146 -46 -29 -100 -56 -120 -62 -59 -16 -141 -11 -211
13 l-65 23 1 50 c4 139 119 283 274 344 110 44 240 47 355 8z m262 -400 l46
-11 -7 -84 c-9 -104 -34 -207 -82 -326 -62 -154 -102 -232 -141 -272 -136
-137 -400 -122 -512 30 -55 76 -181 396 -181 460 0 23 0 23 53 9 28 -7 86 -14
127 -14 96 0 173 27 305 107 115 69 160 93 195 104 39 11 146 10 197 -3z
m-1244 -1890 c-5 -9 -33 -11 -33 -2 0 3 5 15 12 27 11 21 11 21 18 2 4 -11 6
-23 3 -27z m1667 0 c0 -9 -24 -11 -32 -2 -3 3 -3 15 0 26 5 20 6 20 19 3 7
-11 13 -22 13 -27z m-813 -550 c36 -22 49 -23 306 -26 l267 -3 0 -177 c0 -144
3 -182 15 -200 18 -25 72 -43 605 -196 201 -58 384 -116 408 -128 52 -28 132
-110 160 -164 89 -175 59 -370 -76 -501 -53 -52 -136 -96 -210 -112 -29 -6
-116 -11 -193 -11 l-139 0 2 186 3 187 53 17 c29 10 59 26 67 36 36 47 -1 124
-58 124 -18 0 -263 -58 -544 -129 l-513 -129 -34 48 c-67 94 -158 140 -276
140 -88 0 -146 -20 -235 -80 l-72 -48 -394 99 c-217 54 -408 99 -426 99 -57 0
-94 -77 -58 -124 8 -10 38 -26 67 -36 l53 -17 3 -187 2 -186 -139 0 c-159 0
-222 11 -302 51 -150 75 -239 235 -226 407 9 124 87 253 190 319 22 14 171 63
345 114 169 50 382 112 475 140 l167 49 445 0 446 0 24 25 c27 26 32 70 12 96
-29 37 -47 39 -461 39 l-406 0 0 124 0 125 268 3 c254 3 269 4 302 25 19 12
36 22 37 22 1 1 19 -9 40 -21z m-869 -1230 c94 -23 172 -45 172 -48 0 -3 -32
-23 -71 -45 -79 -44 -123 -88 -151 -152 l-19 -43 -59 0 -60 0 0 165 c0 91 3
165 8 165 4 0 85 -19 180 -42z m1852 -123 l0 -165 -872 0 -871 0 18 20 c10 11
91 57 179 102 88 44 198 106 244 136 69 46 92 56 137 60 30 2 65 2 79 -2 40
-10 97 -66 118 -116 26 -61 46 -80 82 -80 17 0 216 47 441 104 226 57 418 105
428 105 15 1 17 -13 17 -164z"/>
<path d="M3736 2739 c-38 -30 -36 -85 4 -124 39 -38 85 -38 117 -1 33 38 29
72 -11 112 -39 39 -72 43 -110 13z"/>
</g>
</svg>
