<?xml version="1.0" standalone="no"?>
<!DOCTYPE svg PUBLIC "-//W3C//DTD SVG 20010904//EN"
 "http://www.w3.org/TR/2001/REC-SVG-20010904/DTD/svg10.dtd">
<svg version="1.0" xmlns="http://www.w3.org/2000/svg"
 width="512.000000pt" height="512.000000pt" viewBox="0 0 512.000000 512.000000"
 preserveAspectRatio="xMidYMid meet">

<g transform="translate(0.000000,512.000000) scale(0.100000,-0.100000)"
fill="#ffffff" stroke="none">
<path d="M434 4946 c-11 -8 -30 -37 -44 -65 -13 -28 -28 -51 -34 -51 -6 0 -29
11 -51 25 -52 31 -89 32 -120 0 -26 -25 -32 -63 -15 -95 5 -10 35 -33 65 -50
l55 -31 -25 -49 c-31 -62 -32 -94 0 -125 46 -47 107 -28 140 44 10 23 22 41
27 41 7 0 655 -375 816 -472 l33 -20 -62 -37 c-33 -20 -92 -68 -129 -107 -147
-156 -209 -371 -165 -577 29 -137 62 -187 451 -678 201 -254 368 -468 370
-474 3 -7 -63 -250 -146 -541 -139 -486 -155 -535 -195 -597 -62 -97 -104
-219 -118 -344 l-11 -103 -454 0 c-328 0 -466 -3 -496 -12 -86 -26 -166 -136
-166 -228 0 -95 81 -204 170 -228 35 -10 477 -12 2005 -10 1799 3 1965 4 2015
20 109 33 170 60 242 107 213 139 345 361 365 613 8 102 -8 155 -64 218 -89
99 -227 107 -327 19 -56 -50 -77 -94 -88 -192 -6 -59 -17 -96 -40 -139 -35
-66 -67 -96 -142 -136 l-51 -27 -721 -3 -721 -3 -5 66 c-9 108 -72 212 -164
273 -25 17 -109 52 -186 78 -87 29 -138 50 -135 58 3 6 120 285 261 619 141
334 256 614 256 622 0 45 -2 45 260 45 l249 0 83 -41 83 -40 155 3 c178 4 208
14 277 92 54 62 63 99 63 270 0 143 -1 148 -25 171 -22 23 -32 25 -110 25 -80
0 -91 3 -167 41 -60 30 -89 39 -109 35 -23 -4 -58 12 -184 85 -85 50 -155 96
-155 102 1 46 12 57 61 57 26 0 81 -7 121 -16 161 -37 378 -15 507 50 28 14
55 26 60 26 6 0 58 -31 117 -70 58 -38 115 -70 126 -70 26 0 56 17 67 39 6 10
28 124 50 254 l39 235 40 51 c172 218 158 531 -33 726 -33 34 -71 69 -84 78
-22 15 -23 17 -11 67 34 142 -40 294 -175 360 -41 20 -65 24 -135 24 -70 0
-94 -4 -135 -24 -135 -66 -207 -214 -176 -360 l12 -53 -38 -31 c-21 -16 -97
-88 -169 -159 l-132 -129 -277 309 c-152 169 -295 323 -317 341 -91 72 -207
79 -335 18 -107 -51 -128 -49 -283 29 -71 36 -140 65 -153 65 -23 0 -357 -241
-384 -277 -18 -24 -16 -67 5 -92 10 -13 123 -60 302 -127 244 -91 296 -107
362 -111 73 -5 81 -4 157 32 107 50 132 46 220 -41 l66 -64 -85 7 c-138 13
-535 9 -645 -5 -138 -19 -280 -47 -409 -83 l-109 -30 -401 235 c-221 129 -440
257 -488 286 l-88 51 30 59 c42 84 40 119 -11 145 -35 19 -59 19 -85 1z m3654
-173 c55 -41 83 -108 68 -166 -5 -23 -9 -24 -43 -16 -50 11 -168 11 -218 -1
-45 -10 -55 -3 -55 47 0 64 37 123 95 149 40 19 119 12 153 -13z m-1962 -45
c93 -46 117 -53 179 -56 61 -3 82 0 136 23 140 59 143 60 186 47 34 -10 77
-53 297 -297 l256 -285 -52 0 -52 0 -186 185 c-214 211 -241 229 -355 230 -59
0 -81 -5 -139 -33 -37 -17 -83 -32 -101 -32 -42 0 -449 150 -438 161 26 25
140 108 150 108 6 1 60 -23 119 -51z m2047 -326 c210 -103 287 -359 170 -561
l-25 -43 -155 153 c-85 85 -206 215 -268 289 -128 152 -127 141 -19 179 91 33
210 26 297 -17z m-433 -228 l73 -86 -64 -64 c-61 -62 -64 -63 -79 -45 -8 11
-42 51 -74 91 l-59 71 59 60 c32 32 61 59 65 59 4 0 39 -39 79 -86z m-1100
-49 c174 -20 280 -42 301 -61 16 -15 19 -33 19 -119 l0 -102 -64 -5 c-149 -12
-292 -131 -321 -265 -3 -18 -10 -33 -15 -33 -4 0 -201 113 -436 251 -236 138
-435 254 -443 259 -23 12 212 61 386 79 132 14 439 12 573 -4z m639 -352 c0
-209 -2 -224 -14 -184 -17 55 -75 140 -115 169 l-30 23 0 109 0 110 80 0 80 0
-1 -227z m262 111 c55 -67 56 -71 62 -144 10 -142 58 -225 182 -316 35 -26 62
-50 60 -54 -8 -13 -119 -39 -190 -44 -39 -4 -101 -1 -140 6 l-70 13 -2 330 -2
330 22 -26 c12 -15 47 -58 78 -95z m-1536 -209 c289 -169 525 -309 525 -311 0
-2 -96 -4 -213 -4 l-213 0 -435 246 c-239 135 -438 249 -442 253 -20 20 196
136 236 127 9 -2 253 -142 542 -311z m2060 145 l140 -140 -106 -106 -107 -107
-79 61 c-124 94 -153 139 -153 237 0 36 7 46 77 117 43 43 80 78 83 78 3 0 68
-63 145 -140z m-2483 -348 l446 -253 92 -126 91 -126 -33 -66 c-29 -59 -32
-75 -33 -151 0 -77 3 -92 33 -152 20 -42 50 -82 79 -108 l47 -41 -36 -107
c-20 -59 -103 -303 -185 -542 -82 -239 -164 -486 -183 -547 -24 -78 -40 -113
-50 -113 -8 0 -63 9 -121 21 l-106 21 148 517 c82 284 149 528 149 542 0 31
17 9 -423 564 -192 241 -360 461 -373 487 -50 100 -66 213 -43 319 14 64 37
121 48 117 4 -2 208 -117 453 -256z m1423 189 c49 -22 91 -69 106 -120 7 -22
10 -89 8 -167 -4 -122 -6 -133 -36 -195 -32 -65 -132 -174 -153 -167 -6 2 -64
46 -129 98 l-119 94 19 24 c16 21 19 42 19 146 0 67 4 136 10 155 16 56 52
100 104 126 59 30 115 32 171 6z m1189 -268 c-3 -27 -8 -50 -10 -52 -2 -2 -15
4 -30 14 l-26 17 33 34 c18 19 35 34 37 34 2 0 0 -21 -4 -47z m-1809 -253
c-32 -33 -60 -58 -60 -57 -1 1 -21 28 -44 60 l-42 57 103 0 102 0 -59 -60z
m301 -142 l115 -92 -35 -33 c-42 -40 -51 -66 -36 -102 19 -46 44 -51 265 -51
l205 0 0 -80 0 -80 -197 1 c-109 1 -289 4 -400 7 l-202 7 -39 38 c-39 38 -62
90 -62 141 0 55 32 103 148 219 64 64 118 117 120 117 1 0 54 -41 118 -92z
m659 -106 c15 -9 -18 -11 -145 -12 l-165 0 65 58 65 59 80 -47 c44 -26 89 -52
100 -58z m326 -137 c52 -25 87 -35 121 -35 l48 0 0 -86 c0 -47 -5 -94 -10
-105 -20 -37 -63 -49 -177 -49 -106 0 -109 0 -200 42 l-92 43 -1 78 0 77 53 0
c39 1 68 9 117 35 36 19 66 34 67 35 1 0 34 -16 74 -35z m-998 -372 c-15 -42
-552 -1315 -556 -1319 -8 -8 -97 28 -97 39 0 10 169 514 371 1109 l64 187 112
1 c103 0 112 -1 106 -17z m2104 -1369 c25 -25 26 -29 20 -105 -12 -150 -76
-287 -187 -399 -76 -75 -147 -120 -252 -158 l-73 -27 -1958 -3 -1958 -2 -24
24 c-33 33 -33 79 0 111 l24 25 1914 0 c1260 0 1933 3 1968 10 216 41 389 248
389 467 0 74 85 109 137 57z m-3037 -19 c186 -36 461 -127 508 -169 42 -37 71
-97 72 -148 l0 -38 -440 0 -440 0 0 34 c0 59 28 186 54 242 39 85 65 116 90
111 11 -3 82 -17 156 -32z m756 -126 c84 -31 144 -112 144 -194 l0 -35 -80 0
-80 0 0 45 c0 53 -29 141 -61 186 l-22 31 24 -7 c13 -4 47 -16 75 -26z"/>
<path d="M185 2615 c-16 -15 -25 -36 -25 -55 0 -19 9 -40 25 -55 l24 -25 231
0 231 0 24 25 c33 32 33 78 0 110 l-24 25 -231 0 -231 0 -24 -25z"/>
<path d="M905 2615 c-16 -15 -25 -36 -25 -55 0 -19 9 -40 25 -55 21 -22 33
-25 95 -25 62 0 74 3 95 25 33 32 33 78 0 110 -21 22 -33 25 -95 25 -62 0 -74
-3 -95 -25z"/>
<path d="M185 2135 c-16 -15 -25 -36 -25 -55 0 -19 9 -40 25 -55 24 -25 26
-25 215 -25 189 0 191 0 215 25 16 15 25 36 25 55 0 19 -9 40 -25 55 -24 25
-26 25 -215 25 -189 0 -191 0 -215 -25z"/>
<path d="M825 2135 c-16 -15 -25 -36 -25 -55 0 -19 9 -40 25 -55 l24 -25 271
0 271 0 24 25 c16 15 25 36 25 55 0 19 -9 40 -25 55 l-24 25 -271 0 -271 0
-24 -25z"/>
<path d="M185 1575 c-16 -15 -25 -36 -25 -55 0 -19 9 -40 25 -55 l24 -25 311
0 311 0 24 25 c33 32 33 78 0 110 l-24 25 -311 0 -311 0 -24 -25z"/>
<path d="M1065 1575 c-16 -15 -25 -36 -25 -55 0 -19 9 -40 25 -55 23 -24 31
-25 135 -25 104 0 112 1 135 25 16 15 25 36 25 55 0 19 -9 40 -25 55 -23 24
-31 25 -135 25 -104 0 -112 -1 -135 -25z"/>
</g>
</svg>
