<?xml version="1.0" standalone="no"?>
<!DOCTYPE svg PUBLIC "-//W3C//DTD SVG 20010904//EN"
 "http://www.w3.org/TR/2001/REC-SVG-20010904/DTD/svg10.dtd">
<svg version="1.0" xmlns="http://www.w3.org/2000/svg"
 width="512.000000pt" height="512.000000pt" viewBox="0 0 512.000000 512.000000"
 preserveAspectRatio="xMidYMid meet">

<g transform="translate(0.000000,512.000000) scale(0.100000,-0.100000)"
fill="#ffffff" stroke="none">
<path d="M1885 5028 c-154 -29 -313 -153 -384 -301 -53 -109 -64 -184 -59
-370 4 -130 9 -162 30 -218 l24 -65 -41 -17 c-92 -39 -162 -131 -172 -230 l-5
-52 -167 -110 c-239 -158 -304 -225 -362 -370 -23 -58 -24 -70 -27 -392 -4
-399 -2 -415 82 -498 114 -114 278 -114 392 -1 77 78 84 109 84 380 0 210 1
223 24 271 12 28 30 56 39 64 16 12 17 -12 17 -343 0 -475 1 -479 157 -751
162 -282 165 -292 161 -572 l-3 -197 -340 -147 c-580 -251 -588 -255 -642
-307 -225 -216 -150 -583 141 -695 106 -40 324 -28 491 28 42 14 166 65 278
114 111 49 501 221 867 381 366 161 755 331 865 380 110 48 367 161 570 250
461 202 477 211 536 271 185 190 144 510 -82 646 -84 50 -164 67 -289 60 -169
-10 -273 -41 -602 -181 l-108 -45 0 142 c0 163 -13 230 -63 320 -18 31 -137
179 -265 328 -128 148 -232 276 -230 283 2 8 57 -7 183 -52 101 -36 204 -66
236 -69 233 -22 382 230 248 419 -44 61 -94 85 -380 180 -153 51 -279 96 -279
101 0 14 201 104 329 147 138 47 312 85 460 100 57 5 249 10 428 10 l324 0 24
25 c17 16 25 35 25 57 0 29 -26 59 -264 297 l-265 264 -183 -6 c-211 -7 -375
-26 -573 -68 -151 -32 -355 -91 -475 -137 l-75 -30 -6 137 c-9 196 -52 303
-167 418 -130 130 -320 187 -507 151z m279 -186 c91 -42 149 -100 194 -190
l37 -76 0 -176 0 -176 -37 -76 c-45 -91 -103 -147 -196 -191 -61 -29 -76 -32
-162 -32 -86 0 -101 3 -160 31 -62 30 -150 97 -150 114 0 4 53 10 118 12 101
4 124 8 168 31 75 38 107 69 145 139 31 58 34 70 34 148 0 78 -3 90 -34 148
-38 69 -80 110 -151 144 -36 17 -69 22 -162 26 -65 2 -118 8 -118 12 0 14 83
81 132 106 69 35 113 44 200 40 61 -3 92 -11 142 -34z m-238 -308 c53 -39 69
-71 69 -134 0 -63 -16 -95 -69 -134 -24 -18 -45 -21 -168 -24 -109 -3 -143 -1
-149 10 -10 15 -12 268 -3 293 6 14 24 16 150 13 125 -3 146 -5 170 -24z
m2038 -293 l158 -159 -278 -5 c-302 -5 -406 -17 -601 -68 -230 -59 -466 -163
-658 -289 -60 -40 -139 -88 -175 -106 -285 -142 -601 -120 -887 62 -81 52
-103 116 -63 181 23 39 67 63 114 63 25 0 46 -10 77 -36 49 -41 110 -73 189
-100 76 -26 243 -26 320 0 151 51 271 150 334 278 36 70 38 73 104 101 325
139 755 230 1112 236 l95 1 159 -159z m-2596 -650 c17 -15 63 -47 103 -71 39
-23 67 -45 62 -50 -4 -4 -71 -55 -149 -112 -159 -120 -185 -146 -228 -238
l-31 -65 -5 -252 -5 -253 -33 -32 c-28 -28 -39 -33 -82 -33 -43 0 -54 5 -82
33 l-33 32 -3 303 c-4 347 2 388 69 481 32 45 72 77 211 171 95 63 173 115
174 115 1 0 16 -13 32 -29z m1272 -280 l0 -249 -39 -49 c-88 -110 -191 -188
-308 -236 -101 -41 -161 -52 -283 -51 -109 1 -125 4 -300 56 l-185 55 -3 211
-2 211 97 74 98 73 75 -18 c168 -40 369 -33 534 19 86 27 208 85 266 127 19
14 38 25 43 26 4 0 7 -112 7 -249z m693 -21 c40 -45 37 -92 -8 -137 -34 -34
-38 -35 -88 -30 -29 3 -137 37 -242 75 l-190 68 -3 112 -3 111 253 -84 c213
-71 257 -90 281 -115z m-380 -643 c108 -126 206 -250 219 -275 23 -46 23 -54
26 -404 l3 -358 -25 0 c-42 0 -178 47 -236 82 l-55 33 -5 175 c-6 197 -16 232
-88 304 -53 54 -81 65 -329 136 -237 67 -260 69 -289 24 -16 -24 -15 -40 24
-317 l42 -292 0 -314 0 -314 -62 6 c-74 7 -197 39 -276 70 l-57 23 -6 250 c-8
317 -10 324 -156 579 -151 263 -163 298 -163 493 0 113 1 123 18 118 174 -51
311 -87 367 -97 259 -44 599 84 781 294 36 43 40 45 56 29 9 -9 104 -120 211
-245z m-393 -501 c150 -44 160 -61 160 -273 l0 -148 -160 -72 -160 -71 0 93
c0 51 -13 186 -30 300 -16 114 -30 213 -30 220 0 14 11 11 220 -49z m1696 -93
c163 -85 192 -308 55 -424 -26 -23 -159 -86 -397 -191 -198 -86 -367 -160
-376 -163 -15 -6 -18 -2 -18 22 0 61 -32 124 -96 193 l-64 67 0 140 0 140 243
101 c211 87 289 113 417 136 14 2 63 3 110 2 63 -2 95 -8 126 -23z m-1516
-516 c0 -64 226 -377 308 -427 23 -14 41 -27 41 -30 0 -3 -136 -64 -302 -137
l-302 -132 -8 52 c-4 29 -23 85 -42 126 l-35 73 0 172 0 173 158 71 c164 74
182 80 182 59z m425 -87 l84 -12 55 -58 c67 -70 73 -104 27 -151 -39 -38 -88
-39 -162 -1 -42 21 -71 48 -131 122 -42 52 -86 111 -98 131 l-20 37 81 -28
c44 -16 118 -33 164 -40z m-1460 -424 c17 -66 61 -155 120 -246 45 -69 86
-112 148 -152 l37 -25 -337 -148 c-186 -82 -370 -159 -408 -171 -154 -49 -323
-56 -400 -16 -159 82 -192 288 -66 411 41 39 92 64 466 226 231 100 421 181
423 180 1 -1 9 -27 17 -59z m287 -21 c49 -13 131 -29 183 -36 l96 -12 24 -48
c14 -27 25 -60 25 -74 0 -39 -27 -83 -62 -101 -61 -32 -180 1 -249 69 -36 35
-121 172 -134 216 -6 21 -5 23 11 17 11 -4 58 -18 106 -31z"/>
</g>
</svg>
