<?xml version="1.0" standalone="no"?>
<!DOCTYPE svg PUBLIC "-//W3C//DTD SVG 20010904//EN"
 "http://www.w3.org/TR/2001/REC-SVG-20010904/DTD/svg10.dtd">
<svg version="1.0" xmlns="http://www.w3.org/2000/svg"
 width="512.000000pt" height="512.000000pt" viewBox="0 0 512.000000 512.000000"
 preserveAspectRatio="xMidYMid meet">

<g transform="translate(0.000000,512.000000) scale(0.100000,-0.100000)"
fill="#ffffff" stroke="none">
<path d="M4163 5105 c-112 -30 -216 -99 -274 -180 -30 -41 -36 -45 -75 -45
-61 0 -162 -35 -217 -76 -58 -43 -121 -136 -137 -205 -7 -28 -10 -83 -8 -123
12 -179 144 -320 324 -346 86 -12 927 -13 1011 -1 135 20 238 96 296 219 28
60 32 77 32 157 0 82 -3 97 -32 156 -61 122 -180 206 -310 217 -50 4 -67 9
-79 26 -8 12 -38 45 -66 74 -115 117 -307 169 -465 127z m252 -218 c60 -30
103 -74 140 -144 15 -28 35 -55 44 -60 9 -4 59 -7 112 -8 90 0 98 -2 133 -29
87 -66 100 -183 28 -259 -60 -64 -42 -62 -556 -65 -490 -3 -543 0 -597 39 -40
28 -69 89 -69 144 0 53 16 88 57 127 43 41 78 51 161 43 88 -8 110 3 147 73
30 58 49 81 97 116 83 62 209 71 303 23z"/>
<path d="M731 4870 c-103 -22 -219 -96 -288 -184 -32 -41 -37 -44 -97 -48
-236 -19 -402 -266 -326 -487 40 -119 113 -197 228 -243 56 -22 66 -23 532
-26 534 -4 600 1 691 49 199 107 260 358 132 547 -63 93 -188 162 -296 162
-39 0 -45 5 -87 57 -54 68 -134 125 -215 154 -68 24 -206 33 -274 19z m196
-205 c64 -19 145 -90 179 -156 35 -71 58 -83 143 -74 44 4 83 3 104 -4 39 -13
91 -64 106 -104 27 -70 0 -165 -58 -206 -54 -39 -107 -42 -597 -39 -469 3
-469 3 -509 26 -115 66 -124 218 -19 298 35 27 43 29 135 29 109 0 125 8 161
80 66 131 211 193 355 150z"/>
<path d="M1563 3686 c-181 -44 -334 -202 -372 -384 -22 -105 -8 -167 44 -190
19 -9 144 -12 455 -12 l430 0 0 -100 0 -100 -437 0 c-462 0 -543 -6 -703 -50
-101 -28 -299 -127 -385 -192 -218 -166 -385 -414 -450 -672 -39 -152 -45
-267 -45 -800 l0 -502 -35 -13 c-36 -13 -65 -53 -65 -91 0 -29 26 -76 47 -86
10 -5 182 -11 383 -14 l364 -5 8 -39 c5 -22 25 -74 44 -115 45 -92 150 -201
241 -249 78 -41 198 -72 278 -72 81 0 201 31 278 72 90 48 187 150 235 247 22
43 43 98 47 120 l7 41 723 0 724 0 11 -42 c24 -99 73 -181 155 -263 128 -128
269 -183 442 -172 147 10 271 67 373 172 71 72 114 141 142 231 l23 74 258 0
c280 0 302 4 325 55 9 19 12 258 12 963 0 1032 1 1005 -63 1126 -40 78 -135
173 -213 213 -107 57 -155 63 -491 63 l-303 0 0 100 0 100 40 0 c220 0 433
177 479 398 14 68 14 115 -1 147 -25 56 -16 55 -662 55 -440 0 -602 -3 -621
-12 -29 -13 -55 -55 -55 -88 0 -33 26 -75 55 -88 19 -9 165 -12 550 -12 289 0
525 -4 525 -8 0 -22 -64 -105 -101 -132 -88 -63 -9 -60 -1501 -60 -747 0
-1358 4 -1358 8 0 22 64 105 101 132 80 58 102 60 546 60 330 0 409 3 432 14
66 35 66 137 0 172 -38 19 -836 19 -916 0z m2287 -686 l0 -100 -765 0 -765 0
0 100 0 100 765 0 765 0 0 -100z m847 -316 c26 -9 67 -30 90 -46 41 -27 103
-105 103 -127 0 -8 -610 -11 -2081 -11 -1363 0 -2078 3 -2074 10 3 5 36 27 73
49 110 64 247 112 367 130 33 5 828 9 1767 10 1551 1 1712 0 1755 -15z m-2957
-644 l0 -260 -716 0 -716 0 7 47 c21 140 78 289 157 411 l40 62 614 0 614 0 0
-260z m1630 0 l0 -260 -715 0 -715 0 0 260 0 260 715 0 715 0 0 -260z m1550 0
l0 -260 -675 0 -675 0 0 260 0 260 675 0 675 0 0 -260z m-4352 -562 l3 -98
-136 0 -135 0 0 93 c0 52 3 97 7 101 4 3 63 5 132 4 l126 -3 3 -97z m4352
-348 l0 -450 -198 0 -197 0 -24 75 c-104 336 -489 499 -808 343 -135 -66 -262
-221 -303 -370 l-13 -48 -722 0 -723 0 -7 41 c-13 77 -83 198 -156 270 -189
187 -471 220 -705 84 -79 -46 -177 -153 -218 -237 -19 -41 -39 -92 -44 -114
l-8 -39 -247 -3 -247 -2 2 247 3 248 160 5 c173 5 194 11 247 67 47 49 58 91
58 218 l0 115 2075 0 2075 0 0 -450z m-3398 -207 c76 -36 145 -103 184 -181
27 -52 29 -66 29 -162 0 -96 -2 -110 -29 -162 -119 -235 -425 -289 -608 -107
-141 140 -151 352 -26 512 102 128 297 172 450 100z m2593 -2 c75 -37 147
-110 183 -189 23 -49 27 -70 27 -152 0 -82 -4 -103 -27 -152 -82 -177 -274
-265 -454 -209 -197 61 -309 256 -260 451 59 232 319 355 531 251z"/>
<path d="M1921 1366 c-67 -37 -65 -143 4 -174 36 -16 140 -15 174 2 66 35 66
137 0 172 -35 18 -146 18 -178 0z"/>
<path d="M1299 652 c-28 -25 -34 -37 -34 -72 0 -35 6 -47 34 -72 29 -26 39
-30 75 -25 54 7 86 44 86 97 0 53 -32 90 -86 97 -36 5 -46 1 -75 -25z"/>
<path d="M3884 646 c-24 -24 -34 -43 -34 -66 0 -41 56 -100 94 -100 105 0 146
139 55 186 -45 23 -78 17 -115 -20z"/>
<path d="M2831 3686 c-87 -48 -50 -186 49 -186 51 0 100 49 100 99 0 75 -83
124 -149 87z"/>
</g>
</svg>
